<mxfile host="65bd71144e">
    <diagram id="2htun0rMmoTNivPPcFkk" name="Page-1">
        <mxGraphModel dx="2630" dy="2470" grid="1" gridSize="10" guides="1" tooltips="1" connect="1" arrows="1" fold="1" page="1" pageScale="1" pageWidth="850" pageHeight="1100" math="0" shadow="0">
            <root>
                <mxCell id="0"/>
                <mxCell id="1" parent="0"/>
                <mxCell id="2" style="edgeStyle=orthogonalEdgeStyle;rounded=0;orthogonalLoop=1;jettySize=auto;html=1;exitX=0;exitY=0.5;exitDx=0;exitDy=0;entryX=1;entryY=0.5;entryDx=0;entryDy=0;fontSize=13;fontColor=#F8F8F2;strokeWidth=2;strokeColor=#BD93F9;" edge="1" parent="1" source="4" target="5">
                    <mxGeometry relative="1" as="geometry"/>
                </mxCell>
                <mxCell id="3" style="edgeStyle=orthogonalEdgeStyle;rounded=0;orthogonalLoop=1;jettySize=auto;html=1;exitX=1;exitY=0.5;exitDx=0;exitDy=0;entryX=0;entryY=0.5;entryDx=0;entryDy=0;strokeColor=#BD93F9;strokeWidth=2;fontSize=13;fontColor=#F8F8F2;" edge="1" parent="1" source="4" target="6">
                    <mxGeometry relative="1" as="geometry"/>
                </mxCell>
                <mxCell id="4" value="FacebookAuthentication" style="rounded=1;whiteSpace=wrap;html=1;strokeColor=#BD93F9;fillColor=#2E303D;strokeWidth=3;fontColor=#F8F8F2;" vertex="1" parent="1">
                    <mxGeometry x="-59.5" y="471.5" width="154" height="60" as="geometry"/>
                </mxCell>
                <mxCell id="5" value="AccessToken" style="rounded=1;whiteSpace=wrap;html=1;strokeColor=#FF79C6;fillColor=#2E303D;strokeWidth=3;fontColor=#F8F8F2;" vertex="1" parent="1">
                    <mxGeometry x="-205" y="471.5" width="104" height="60" as="geometry"/>
                </mxCell>
                <mxCell id="6" value="AuthenticationError" style="rounded=1;whiteSpace=wrap;html=1;strokeColor=#FF79C6;fillColor=#2E303D;strokeWidth=3;fontColor=#F8F8F2;" vertex="1" parent="1">
                    <mxGeometry x="136" y="471.5" width="122" height="60" as="geometry"/>
                </mxCell>
                <mxCell id="7" value="UserAccount" style="rounded=1;whiteSpace=wrap;html=1;strokeColor=#FF79C6;fillColor=#2E303D;strokeWidth=3;fontColor=#F8F8F2;" vertex="1" parent="1">
                    <mxGeometry x="-350.5" y="471.5" width="104" height="60" as="geometry"/>
                </mxCell>
                <mxCell id="8" value="" style="rounded=0;whiteSpace=wrap;html=1;strokeColor=none;strokeWidth=3;fillColor=#FF79C6;fontSize=13;fontColor=#F8F8F2;align=right;" vertex="1" parent="1">
                    <mxGeometry x="-394" y="-136.5" width="20" height="20" as="geometry"/>
                </mxCell>
                <mxCell id="9" value="Model" style="text;html=1;resizable=0;points=[];autosize=1;align=left;verticalAlign=middle;spacingTop=-4;fontSize=13;fontColor=#F8F8F2;" vertex="1" parent="1">
                    <mxGeometry x="-372" y="-134.5" width="45" height="16" as="geometry"/>
                </mxCell>
                <mxCell id="10" value="" style="rounded=0;whiteSpace=wrap;html=1;strokeColor=none;strokeWidth=3;fillColor=#BD93F9;fontSize=13;fontColor=#F8F8F2;align=right;" vertex="1" parent="1">
                    <mxGeometry x="-394" y="-107.5" width="20" height="20" as="geometry"/>
                </mxCell>
                <mxCell id="11" value="Abstraction" style="text;html=1;resizable=0;points=[];autosize=1;align=left;verticalAlign=middle;spacingTop=-4;fontSize=13;fontColor=#F8F8F2;" vertex="1" parent="1">
                    <mxGeometry x="-372" y="-105.5" width="75" height="16" as="geometry"/>
                </mxCell>
                <mxCell id="12" value="" style="rounded=0;whiteSpace=wrap;html=1;strokeColor=none;strokeWidth=3;fillColor=#8BE9FD;fontSize=13;fontColor=#F8F8F2;align=right;" vertex="1" parent="1">
                    <mxGeometry x="-394" y="-76.5" width="20" height="20" as="geometry"/>
                </mxCell>
                <mxCell id="13" value="Implementation" style="text;html=1;resizable=0;points=[];autosize=1;align=left;verticalAlign=middle;spacingTop=-4;fontSize=13;fontColor=#F8F8F2;" vertex="1" parent="1">
                    <mxGeometry x="-372" y="-74.5" width="99" height="16" as="geometry"/>
                </mxCell>
                <mxCell id="14" value="" style="rounded=0;whiteSpace=wrap;html=1;strokeColor=none;strokeWidth=3;fillColor=#50FA7B;fontSize=13;fontColor=#F8F8F2;align=right;" vertex="1" parent="1">
                    <mxGeometry x="-394" y="-165.5" width="20" height="20" as="geometry"/>
                </mxCell>
                <mxCell id="15" value="Layer" style="text;html=1;resizable=0;points=[];autosize=1;align=left;verticalAlign=middle;spacingTop=-4;fontSize=13;fontColor=#F8F8F2;" vertex="1" parent="1">
                    <mxGeometry x="-372" y="-163.5" width="43" height="16" as="geometry"/>
                </mxCell>
                <mxCell id="16" value="" style="rounded=0;whiteSpace=wrap;html=1;strokeColor=#50FA7B;strokeWidth=3;fillColor=#2E303D;fontColor=#F8F8F2;" vertex="1" parent="1">
                    <mxGeometry x="-395" y="357" width="814" height="393" as="geometry"/>
                </mxCell>
                <mxCell id="17" style="edgeStyle=orthogonalEdgeStyle;rounded=0;orthogonalLoop=1;jettySize=auto;html=1;exitX=0;exitY=0.25;exitDx=0;exitDy=0;entryX=0.5;entryY=1;entryDx=0;entryDy=0;strokeColor=#8BE9FD;strokeWidth=3;" edge="1" parent="1" source="21" target="31">
                    <mxGeometry relative="1" as="geometry"/>
                </mxCell>
                <mxCell id="18" style="edgeStyle=orthogonalEdgeStyle;rounded=0;orthogonalLoop=1;jettySize=auto;html=1;exitX=0.25;exitY=0;exitDx=0;exitDy=0;entryX=0.5;entryY=1;entryDx=0;entryDy=0;strokeColor=#8BE9FD;strokeWidth=3;" edge="1" parent="1" source="21" target="28">
                    <mxGeometry relative="1" as="geometry"/>
                </mxCell>
                <mxCell id="19" style="edgeStyle=orthogonalEdgeStyle;rounded=0;orthogonalLoop=1;jettySize=auto;html=1;exitX=0.75;exitY=0;exitDx=0;exitDy=0;entryX=0.5;entryY=1;entryDx=0;entryDy=0;strokeColor=#8BE9FD;strokeWidth=3;" edge="1" parent="1" source="21" target="29">
                    <mxGeometry relative="1" as="geometry"/>
                </mxCell>
                <mxCell id="20" style="edgeStyle=orthogonalEdgeStyle;rounded=0;orthogonalLoop=1;jettySize=auto;html=1;exitX=1;exitY=0.5;exitDx=0;exitDy=0;entryX=0.5;entryY=1;entryDx=0;entryDy=0;strokeColor=#8BE9FD;strokeWidth=3;" edge="1" parent="1" source="21" target="30">
                    <mxGeometry relative="1" as="geometry"/>
                </mxCell>
                <mxCell id="21" value="FacebookAuthenticationUseCase" style="rounded=1;whiteSpace=wrap;html=1;strokeColor=#8BE9FD;fillColor=#2E303D;strokeWidth=3;fontColor=#F8F8F2;" vertex="1" parent="1">
                    <mxGeometry x="-77.5" y="501.5" width="190" height="60" as="geometry"/>
                </mxCell>
                <mxCell id="22" value="" style="rounded=0;whiteSpace=wrap;html=1;strokeColor=none;strokeWidth=3;fillColor=#FF5555;fontSize=13;fontColor=#F8F8F2;align=right;" vertex="1" parent="1">
                    <mxGeometry x="-394" y="-45.5" width="20" height="20" as="geometry"/>
                </mxCell>
                <mxCell id="23" value="External Lib" style="text;html=1;resizable=0;points=[];autosize=1;align=left;verticalAlign=middle;spacingTop=-4;fontSize=13;fontColor=#F8F8F2;" vertex="1" parent="1">
                    <mxGeometry x="-372" y="-43.5" width="79" height="16" as="geometry"/>
                </mxCell>
                <mxCell id="24" value="AuthenticationError" style="rounded=1;whiteSpace=wrap;html=1;strokeColor=#FF79C6;fillColor=#2E303D;strokeWidth=3;fontColor=#F8F8F2;" vertex="1" parent="1">
                    <mxGeometry x="136" y="644.5" width="122" height="60" as="geometry"/>
                </mxCell>
                <mxCell id="25" value="FacebookAuthentication" style="rounded=1;whiteSpace=wrap;html=1;strokeColor=#BD93F9;fillColor=#2E303D;strokeWidth=3;fontColor=#F8F8F2;" vertex="1" parent="1">
                    <mxGeometry x="-59.5" y="644.5" width="154" height="60" as="geometry"/>
                </mxCell>
                <mxCell id="26" value="AccessToken" style="rounded=1;whiteSpace=wrap;html=1;strokeColor=#FF79C6;fillColor=#2E303D;strokeWidth=3;fontColor=#F8F8F2;" vertex="1" parent="1">
                    <mxGeometry x="-205" y="644.5" width="104" height="60" as="geometry"/>
                </mxCell>
                <mxCell id="27" style="edgeStyle=orthogonalEdgeStyle;rounded=0;orthogonalLoop=1;jettySize=auto;html=1;exitX=0.5;exitY=1;exitDx=0;exitDy=0;entryX=0.5;entryY=0;entryDx=0;entryDy=0;strokeWidth=3;strokeColor=#8BE9FD;dashed=1;dashPattern=1 1;" edge="1" parent="1" source="21" target="25">
                    <mxGeometry relative="1" as="geometry"/>
                </mxCell>
                <mxCell id="28" value="LoadFacebookUser" style="rounded=1;whiteSpace=wrap;html=1;strokeColor=#BD93F9;fillColor=#2E303D;strokeWidth=3;fontColor=#F8F8F2;" vertex="1" parent="1">
                    <mxGeometry x="-191.5" y="393" width="144" height="60" as="geometry"/>
                </mxCell>
                <mxCell id="29" value="LoadUserAccount" style="rounded=1;whiteSpace=wrap;html=1;strokeColor=#BD93F9;fillColor=#2E303D;strokeWidth=3;fontColor=#F8F8F2;" vertex="1" parent="1">
                    <mxGeometry x="53" y="393" width="144" height="60" as="geometry"/>
                </mxCell>
                <mxCell id="30" value="SaveFacebookAccount" style="rounded=1;whiteSpace=wrap;html=1;strokeColor=#BD93F9;fillColor=#2E303D;strokeWidth=3;fontColor=#F8F8F2;" vertex="1" parent="1">
                    <mxGeometry x="220.5" y="393" width="173" height="60" as="geometry"/>
                </mxCell>
                <mxCell id="31" value="TokenGenerator" style="rounded=1;whiteSpace=wrap;html=1;strokeColor=#BD93F9;fillColor=#2E303D;strokeWidth=3;fontColor=#F8F8F2;" vertex="1" parent="1">
                    <mxGeometry x="-365" y="393" width="144" height="60" as="geometry"/>
                </mxCell>
                <mxCell id="32" style="edgeStyle=orthogonalEdgeStyle;rounded=0;orthogonalLoop=1;jettySize=auto;html=1;exitX=0.25;exitY=1;exitDx=0;exitDy=0;entryX=0.5;entryY=0;entryDx=0;entryDy=0;strokeColor=#8BE9FD;strokeWidth=3;" edge="1" parent="1" source="21" target="26">
                    <mxGeometry relative="1" as="geometry"/>
                </mxCell>
                <mxCell id="33" style="edgeStyle=orthogonalEdgeStyle;rounded=0;orthogonalLoop=1;jettySize=auto;html=1;exitX=0.75;exitY=1;exitDx=0;exitDy=0;strokeColor=#8BE9FD;strokeWidth=3;entryX=0.5;entryY=0;entryDx=0;entryDy=0;" edge="1" parent="1" source="21" target="24">
                    <mxGeometry relative="1" as="geometry">
                        <mxPoint x="197" y="645" as="targetPoint"/>
                    </mxGeometry>
                </mxCell>
                <mxCell id="34" value="FacebookAccount" style="rounded=1;whiteSpace=wrap;html=1;strokeColor=#FF79C6;fillColor=#2E303D;strokeWidth=3;fontColor=#F8F8F2;" vertex="1" parent="1">
                    <mxGeometry x="-349" y="644.5" width="112" height="60" as="geometry"/>
                </mxCell>
                <mxCell id="35" style="edgeStyle=orthogonalEdgeStyle;rounded=0;orthogonalLoop=1;jettySize=auto;html=1;exitX=0;exitY=0.75;exitDx=0;exitDy=0;entryX=0.5;entryY=0;entryDx=0;entryDy=0;strokeColor=#8BE9FD;strokeWidth=3;" edge="1" parent="1" source="21" target="34">
                    <mxGeometry relative="1" as="geometry"/>
                </mxCell>
                <mxCell id="36" value="Domain" style="text;html=1;resizable=0;points=[];autosize=1;align=right;verticalAlign=bottom;spacingTop=-4;fontColor=#F8F8F2;fontSize=13;" vertex="1" parent="1">
                    <mxGeometry x="366" y="338.5" width="54" height="16" as="geometry"/>
                </mxCell>
                <mxCell id="37" value="" style="rounded=0;whiteSpace=wrap;html=1;strokeColor=#50FA7B;strokeWidth=3;fillColor=#2E303D;fontColor=#F8F8F2;" vertex="1" parent="1">
                    <mxGeometry x="-395" y="80" width="814" height="219" as="geometry"/>
                </mxCell>
                <mxCell id="38" value="Infra" style="text;html=1;resizable=0;points=[];autosize=1;align=right;verticalAlign=bottom;spacingTop=-4;fontColor=#F8F8F2;fontSize=13;" vertex="1" parent="1">
                    <mxGeometry x="382" y="59.5" width="36" height="16" as="geometry"/>
                </mxCell>
                <mxCell id="39" style="edgeStyle=orthogonalEdgeStyle;rounded=0;orthogonalLoop=1;jettySize=auto;html=1;exitX=0;exitY=0.5;exitDx=0;exitDy=0;entryX=1;entryY=0.5;entryDx=0;entryDy=0;fontSize=13;fontColor=#F8F8F2;strokeWidth=2;strokeColor=#BD93F9;" edge="1" parent="1">
                    <mxGeometry relative="1" as="geometry">
                        <mxPoint x="-102" y="213" as="targetPoint"/>
                    </mxGeometry>
                </mxCell>
                <mxCell id="40" style="edgeStyle=orthogonalEdgeStyle;rounded=0;orthogonalLoop=1;jettySize=auto;html=1;exitX=1;exitY=0.5;exitDx=0;exitDy=0;entryX=0;entryY=0.5;entryDx=0;entryDy=0;strokeColor=#BD93F9;strokeWidth=2;fontSize=13;fontColor=#F8F8F2;" edge="1" parent="1">
                    <mxGeometry relative="1" as="geometry">
                        <mxPoint x="94" y="213" as="sourcePoint"/>
                    </mxGeometry>
                </mxCell>
                <mxCell id="41" style="edgeStyle=orthogonalEdgeStyle;rounded=0;orthogonalLoop=1;jettySize=auto;html=1;exitX=0.5;exitY=1;exitDx=0;exitDy=0;entryX=0.5;entryY=0;entryDx=0;entryDy=0;dashed=1;dashPattern=1 1;strokeColor=#8BE9FD;strokeWidth=3;" edge="1" parent="1" source="43" target="28">
                    <mxGeometry relative="1" as="geometry"/>
                </mxCell>
                <mxCell id="42" style="edgeStyle=orthogonalEdgeStyle;rounded=0;orthogonalLoop=1;jettySize=auto;html=1;exitX=0.5;exitY=0;exitDx=0;exitDy=0;entryX=0.5;entryY=1;entryDx=0;entryDy=0;strokeColor=#8BE9FD;strokeWidth=3;" edge="1" parent="1" source="43" target="44">
                    <mxGeometry relative="1" as="geometry"/>
                </mxCell>
                <mxCell id="43" value="FacebookApi" style="rounded=1;whiteSpace=wrap;html=1;strokeColor=#8BE9FD;fillColor=#2E303D;strokeWidth=3;fontColor=#F8F8F2;" vertex="1" parent="1">
                    <mxGeometry x="-175.5" y="214" width="112" height="60" as="geometry"/>
                </mxCell>
                <mxCell id="44" value="HttpGetClient" style="rounded=1;whiteSpace=wrap;html=1;strokeColor=#BD93F9;fillColor=#2E303D;strokeWidth=3;fontColor=#F8F8F2;" vertex="1" parent="1">
                    <mxGeometry x="-167" y="111" width="95" height="60" as="geometry"/>
                </mxCell>
                <mxCell id="45" style="edgeStyle=orthogonalEdgeStyle;rounded=0;orthogonalLoop=1;jettySize=auto;html=1;exitX=0;exitY=0.5;exitDx=0;exitDy=0;entryX=1;entryY=0.5;entryDx=0;entryDy=0;" edge="1" parent="1" source="48" target="44">
                    <mxGeometry relative="1" as="geometry"/>
                </mxCell>
                <mxCell id="46" value="" style="edgeStyle=orthogonalEdgeStyle;rounded=0;orthogonalLoop=1;jettySize=auto;html=1;dashed=1;dashPattern=1 1;strokeColor=#8BE9FD;strokeWidth=3;" edge="1" parent="1" source="48" target="44">
                    <mxGeometry relative="1" as="geometry"/>
                </mxCell>
                <mxCell id="47" style="edgeStyle=orthogonalEdgeStyle;rounded=0;orthogonalLoop=1;jettySize=auto;html=1;exitX=0.5;exitY=0;exitDx=0;exitDy=0;entryX=0.5;entryY=1;entryDx=0;entryDy=0;strokeColor=#8BE9FD;strokeWidth=3;" edge="1" parent="1" source="48" target="49">
                    <mxGeometry relative="1" as="geometry"/>
                </mxCell>
                <mxCell id="48" value="AxiosHttpClient" style="rounded=1;whiteSpace=wrap;html=1;strokeColor=#8BE9FD;fillColor=#2E303D;strokeWidth=3;fontColor=#F8F8F2;" vertex="1" parent="1">
                    <mxGeometry x="-32" y="111" width="111" height="60" as="geometry"/>
                </mxCell>
                <mxCell id="49" value="Axios" style="rounded=1;whiteSpace=wrap;html=1;strokeColor=#FF5555;fillColor=#2E303D;strokeWidth=3;fontColor=#F8F8F2;" vertex="1" parent="1">
                    <mxGeometry x="-13.5" y="-9" width="74" height="60" as="geometry"/>
                </mxCell>
                <mxCell id="50" style="edgeStyle=orthogonalEdgeStyle;rounded=0;orthogonalLoop=1;jettySize=auto;html=1;exitX=0.5;exitY=1;exitDx=0;exitDy=0;entryX=0.5;entryY=0;entryDx=0;entryDy=0;dashed=1;dashPattern=1 1;strokeColor=#8BE9FD;strokeWidth=3;" edge="1" parent="1" source="52" target="31">
                    <mxGeometry relative="1" as="geometry"/>
                </mxCell>
                <mxCell id="51" style="edgeStyle=orthogonalEdgeStyle;rounded=0;orthogonalLoop=1;jettySize=auto;html=1;exitX=0;exitY=0.5;exitDx=0;exitDy=0;entryX=1;entryY=0.5;entryDx=0;entryDy=0;strokeColor=#8BE9FD;strokeWidth=3;" edge="1" parent="1" source="52" target="53">
                    <mxGeometry relative="1" as="geometry"/>
                </mxCell>
                <mxCell id="52" value="JwtTokenGenerator" style="rounded=1;whiteSpace=wrap;html=1;strokeColor=#8BE9FD;fillColor=#2E303D;strokeWidth=3;fontColor=#F8F8F2;" vertex="1" parent="1">
                    <mxGeometry x="-355.5" y="214" width="125" height="60" as="geometry"/>
                </mxCell>
                <mxCell id="53" value="JsonWebToken" style="rounded=1;whiteSpace=wrap;html=1;strokeColor=#FF5555;fillColor=#2E303D;strokeWidth=3;fontColor=#F8F8F2;" vertex="1" parent="1">
                    <mxGeometry x="-538" y="214" width="106" height="60" as="geometry"/>
                </mxCell>
                <mxCell id="54" style="edgeStyle=orthogonalEdgeStyle;rounded=0;orthogonalLoop=1;jettySize=auto;html=1;exitX=0.25;exitY=1;exitDx=0;exitDy=0;entryX=0.5;entryY=0;entryDx=0;entryDy=0;dashed=1;dashPattern=1 1;strokeColor=#8BE9FD;strokeWidth=3;" edge="1" parent="1" source="57" target="29">
                    <mxGeometry relative="1" as="geometry"/>
                </mxCell>
                <mxCell id="55" style="edgeStyle=orthogonalEdgeStyle;rounded=0;orthogonalLoop=1;jettySize=auto;html=1;exitX=0.75;exitY=1;exitDx=0;exitDy=0;entryX=0.5;entryY=0;entryDx=0;entryDy=0;dashed=1;dashPattern=1 1;strokeColor=#8BE9FD;strokeWidth=3;" edge="1" parent="1" source="57" target="30">
                    <mxGeometry relative="1" as="geometry"/>
                </mxCell>
                <mxCell id="56" style="edgeStyle=orthogonalEdgeStyle;rounded=0;orthogonalLoop=1;jettySize=auto;html=1;exitX=1;exitY=0.5;exitDx=0;exitDy=0;entryX=0;entryY=0.5;entryDx=0;entryDy=0;strokeColor=#8BE9FD;strokeWidth=3;" edge="1" parent="1" source="57" target="58">
                    <mxGeometry relative="1" as="geometry"/>
                </mxCell>
                <mxCell id="57" value="PgUserAccountRepo" style="rounded=1;whiteSpace=wrap;html=1;strokeColor=#8BE9FD;fillColor=#2E303D;strokeWidth=3;fontColor=#F8F8F2;" vertex="1" parent="1">
                    <mxGeometry x="144" y="214" width="137" height="60" as="geometry"/>
                </mxCell>
                <mxCell id="58" value="TypeORM" style="rounded=1;whiteSpace=wrap;html=1;strokeColor=#FF5555;fillColor=#2E303D;strokeWidth=3;fontColor=#F8F8F2;" vertex="1" parent="1">
                    <mxGeometry x="466.5" y="214" width="74" height="60" as="geometry"/>
                </mxCell>
                <mxCell id="59" value="" style="rounded=0;whiteSpace=wrap;html=1;strokeColor=#50FA7B;strokeWidth=3;fillColor=#2E303D;fontColor=#F8F8F2;" vertex="1" parent="1">
                    <mxGeometry x="-395" y="805" width="814" height="328" as="geometry"/>
                </mxCell>
                <mxCell id="60" value="Application" style="text;html=1;resizable=0;points=[];autosize=1;align=right;verticalAlign=bottom;spacingTop=-4;fontColor=#F8F8F2;fontSize=13;" vertex="1" parent="1">
                    <mxGeometry x="350.5" y="786" width="73" height="16" as="geometry"/>
                </mxCell>
                <mxCell id="61" style="edgeStyle=orthogonalEdgeStyle;rounded=0;orthogonalLoop=1;jettySize=auto;html=1;exitX=0.5;exitY=0;exitDx=0;exitDy=0;entryX=0.5;entryY=1;entryDx=0;entryDy=0;strokeColor=#8BE9FD;strokeWidth=3;" edge="1" parent="1" source="64" target="25">
                    <mxGeometry relative="1" as="geometry"/>
                </mxCell>
                <mxCell id="62" style="edgeStyle=orthogonalEdgeStyle;rounded=0;orthogonalLoop=1;jettySize=auto;html=1;exitX=0.5;exitY=1;exitDx=0;exitDy=0;entryX=0.5;entryY=0;entryDx=0;entryDy=0;strokeColor=#8BE9FD;strokeWidth=3;" edge="1" parent="1" source="64" target="67">
                    <mxGeometry relative="1" as="geometry"/>
                </mxCell>
                <mxCell id="63" style="edgeStyle=orthogonalEdgeStyle;rounded=0;orthogonalLoop=1;jettySize=auto;html=1;exitX=1;exitY=0.5;exitDx=0;exitDy=0;entryX=0;entryY=0.5;entryDx=0;entryDy=0;strokeColor=#8BE9FD;strokeWidth=3;dashed=1;dashPattern=1 1;" edge="1" parent="1" source="64" target="69">
                    <mxGeometry relative="1" as="geometry"/>
                </mxCell>
                <mxCell id="64" value="FacebookLoginController" style="rounded=1;whiteSpace=wrap;html=1;strokeColor=#8BE9FD;fillColor=#2E303D;strokeWidth=3;fontColor=#F8F8F2;" vertex="1" parent="1">
                    <mxGeometry x="-59.5" y="835" width="154" height="60" as="geometry"/>
                </mxCell>
                <mxCell id="65" value="ValidationComposite" style="rounded=1;whiteSpace=wrap;html=1;strokeColor=#8BE9FD;fillColor=#2E303D;strokeWidth=3;fontColor=#F8F8F2;" vertex="1" parent="1">
                    <mxGeometry x="187.5" y="939" width="136" height="60" as="geometry"/>
                </mxCell>
                <mxCell id="66" style="edgeStyle=orthogonalEdgeStyle;rounded=0;orthogonalLoop=1;jettySize=auto;html=1;exitX=0.5;exitY=1;exitDx=0;exitDy=0;entryX=0.5;entryY=0;entryDx=0;entryDy=0;strokeColor=#8BE9FD;strokeWidth=3;" edge="1" parent="1" source="67" target="70">
                    <mxGeometry relative="1" as="geometry"/>
                </mxCell>
                <mxCell id="67" value="ValidationBuilder" style="rounded=1;whiteSpace=wrap;html=1;strokeColor=#8BE9FD;fillColor=#2E303D;strokeWidth=3;fontColor=#F8F8F2;" vertex="1" parent="1">
                    <mxGeometry x="-43" y="939" width="122" height="60" as="geometry"/>
                </mxCell>
                <mxCell id="68" style="edgeStyle=orthogonalEdgeStyle;rounded=0;orthogonalLoop=1;jettySize=auto;html=1;exitX=0.5;exitY=1;exitDx=0;exitDy=0;entryX=0.5;entryY=0;entryDx=0;entryDy=0;strokeColor=#8BE9FD;strokeWidth=3;" edge="1" parent="1" source="69" target="65">
                    <mxGeometry relative="1" as="geometry"/>
                </mxCell>
                <mxCell id="69" value="Controller" style="rounded=1;whiteSpace=wrap;html=1;strokeColor=#BD93F9;fillColor=#2E303D;strokeWidth=3;fontColor=#F8F8F2;" vertex="1" parent="1">
                    <mxGeometry x="204" y="835" width="103" height="60" as="geometry"/>
                </mxCell>
                <mxCell id="70" value="RequiredString" style="rounded=1;whiteSpace=wrap;html=1;strokeColor=#8BE9FD;fillColor=#2E303D;strokeWidth=3;fontColor=#F8F8F2;" vertex="1" parent="1">
                    <mxGeometry x="-45.5" y="1038.5" width="126" height="60" as="geometry"/>
                </mxCell>
            </root>
        </mxGraphModel>
    </diagram>
</mxfile>
